<svg width="62" height="64" viewBox="0 0 62 64" fill="none" xmlns="http://www.w3.org/2000/svg">
<g clip-path="url(#clip0_5_34)">
<path d="M55.3551 27.7111L7.23615 34.6458C5.15259 34.9521 3.04087 34.2559 1.63306 32.7241C0.619437 31.6101 0 30.134 0 28.5187C0 25.1767 2.64668 22.4473 5.99727 22.2802C6.22252 22.2802 6.41962 22.2524 6.64487 22.2245L54.7639 15.3177C56.8474 15.0113 58.9591 15.7076 60.3669 17.2393C61.3806 18.3534 62 19.8294 62 21.4447C62 24.7868 59.3533 27.5161 56.0027 27.6832C55.8056 27.6554 55.5804 27.6832 55.3551 27.7111Z" fill="url(#paint0_linear_5_34)"/>
<path d="M50.3433 44.1427L11.6567 49.7128C8.16529 49.7128 5.34967 46.9278 5.34967 43.4743C5.34967 40.0209 8.16529 37.2359 11.6567 37.2359L50.3433 31.6658C53.8347 31.6658 56.6503 34.4508 56.6503 37.9043C56.6503 41.3299 53.8347 44.1427 50.3433 44.1427Z" fill="url(#paint1_linear_5_34)"/>
<path d="M40.1226 61.215L21.8492 64C18.3579 64 15.5422 61.215 15.5422 57.7615C15.5422 54.3081 18.3579 51.5231 21.8492 51.5231L40.1226 48.738C43.614 48.738 46.4296 51.5231 46.4296 54.9765C46.4578 58.4299 43.614 61.215 40.1226 61.215Z" fill="url(#paint2_linear_5_34)"/>
<path d="M37.307 14.6214V6.23847C37.307 2.78503 34.4914 0 31 0C27.5086 0 24.693 2.78503 24.693 6.23847V16.4317L37.307 14.6214Z" fill="url(#paint3_linear_5_34)"/>
</g>
<defs>
<linearGradient id="paint0_linear_5_34" x1="62" y1="24.9817" x2="1.23347e-07" y2="24.9817" gradientUnits="userSpaceOnUse">
<stop stop-color="#FF0000"/>
<stop offset="1" stop-color="#FF8938"/>
</linearGradient>
<linearGradient id="paint1_linear_5_34" x1="56.6503" y1="40.6893" x2="5.34967" y2="40.6893" gradientUnits="userSpaceOnUse">
<stop stop-color="#FF0000"/>
<stop offset="1" stop-color="#FF8938"/>
</linearGradient>
<linearGradient id="paint2_linear_5_34" x1="46.4298" y1="56.369" x2="15.5422" y2="56.369" gradientUnits="userSpaceOnUse">
<stop stop-color="#FF0000"/>
<stop offset="1" stop-color="#FF8938"/>
</linearGradient>
<linearGradient id="paint3_linear_5_34" x1="37.307" y1="8.21584" x2="24.693" y2="8.21584" gradientUnits="userSpaceOnUse">
<stop stop-color="#FF0000"/>
<stop offset="1" stop-color="#FF8938"/>
</linearGradient>
<clipPath id="clip0_5_34">
<rect width="62" height="64" fill="white"/>
</clipPath>
</defs>
</svg>
